<?xml version="1.0" encoding="UTF-8"?><svg id="Layer_1" xmlns="http://www.w3.org/2000/svg" viewBox="0 0 24 24"><defs><style>.cls-1{fill:#fff;}.cls-2{fill:#3d5ba9;}</style></defs><rect class="cls-2" width="24" height="24" rx="2.17" ry="2.17"/><circle class="cls-1" cx="12" cy="5.34" r="1.23"/><path class="cls-1" d="m12.7,10.22l-2.56.87,1.59-2.82c.17-.3.06-.67-.24-.84-.02,0-.03-.02-.05-.02l-4.04-1.83c-.27-.12-.58-.04-.75.2l-2.03,2.83,1,.72,1.73-2.42,1.74.79-1.29,2.3c-1.19-.23-2.41.15-3.26,1.01l1.03.74c.33-.28.74-.47,1.17-.55,1.34-.22,2.61.69,2.83,2.03.07.45.01.89-.14,1.28l1.03.74c.34-.69.45-1.46.33-2.22-.04-.27-.12-.53-.22-.77l1.86-.63.58,3.53,1.21-.2-.7-4.25c-.05-.33-.37-.56-.7-.51-.03,0-.07.01-.1.03Zm-5.17,5.83c-1.34.22-2.61-.69-2.83-2.03-.07-.45-.01-.89.14-1.28l-1.03-.74c-.34.69-.45,1.46-.33,2.22.33,2.01,2.23,3.37,4.24,3.04.79-.13,1.47-.5,1.99-1.02l-1.03-.74c-.33.28-.74.47-1.17.55Z"/><path class="cls-1" d="m20.21,14.73l-15.3,4.18c-.56.15-.45.97.13.97h15.25c.17,0,.31-.14.31-.31v-4.55c0-.2-.19-.35-.39-.3Z"/></svg>