<?xml version="1.0" encoding="UTF-8"?><svg id="Layer_1" xmlns="http://www.w3.org/2000/svg" viewBox="0 0 26 26"><defs><style>.cls-1{fill:#603913;}.cls-2{fill:#e6e7e8;stroke:#000;stroke-miterlimit:10;stroke-width:2px;}</style></defs><rect class="cls-2" x="1" y="1" width="24" height="24" rx="2.16" ry="2.16"/><path class="cls-1" d="m21.03,12.51l-.04-5.1c0-.78-1.02-1.41-2.27-1.41H7.34c-1.25,0-2.27.63-2.27,1.41l.04,5.1c-.63,0-1.14.32-1.14.71v6.78h3.41v-3.42h11.37v3.42h3.41v-6.78c0-.39-.51-.71-1.14-.71Zm-2.27-4.67v4.67h-2.27v-4.67h2.27Zm-4.55,0v4.67h-2.27v-4.67h2.27Zm-6.82,0h2.27v4.67h-2.27v-4.67Z"/></svg>