<?xml version="1.0" encoding="UTF-8"?><svg id="Layer_1" xmlns="http://www.w3.org/2000/svg" viewBox="0 0 26 26"><defs><style>.cls-1{fill:#98c4d1;stroke:#58595b;stroke-miterlimit:10;stroke-width:2px;}.cls-2{fill:#58595b;}</style></defs><rect class="cls-2" x="1" y="1" width="24" height="24" rx="12" ry="12"/><path class="cls-2" d="m16.29,15.19h-2.65l3.97,3.97V5.93h-1.32v9.27Zm2.73-7.28v11.25h1.32v-9.27h2.65l-3.97-3.97v1.99Z"/><rect class="cls-1" x="1" y="1" width="24" height="24" rx="12" ry="12"/><path class="cls-2" d="m16.29,15.19h-2.65l3.97,3.97V5.93h-1.32v9.27Zm2.73-7.28v11.25h1.32v-9.27h2.65l-3.97-3.97v1.99Z"/><circle class="cls-2" cx="13" cy="8.28" r="1.26"/><path class="cls-2" d="m12.9,13.32l-2.74.46,2.07-2.59c.22-.27.17-.67-.1-.88-.01-.01-.03-.02-.04-.03l-3.78-2.52c-.25-.17-.58-.13-.79.08l-2.52,2.52.89.89,2.15-2.15,1.63,1.08-1.69,2.11c-1.16-.43-2.46-.25-3.46.47l.91.91c.38-.23.82-.35,1.27-.36,1.39,0,2.52,1.13,2.52,2.52,0,.47-.14.9-.36,1.27l.91.91c.46-.64.7-1.4.7-2.19,0-.28-.03-.55-.09-.82l1.98-.33v3.66h1.26v-4.41c0-.35-.28-.63-.63-.63-.04,0-.07,0-.11,0Zm-6.19,5.03c-1.39,0-2.52-1.13-2.52-2.52,0-.47.14-.9.36-1.27l-.91-.91c-.46.64-.7,1.4-.7,2.19,0,2.08,1.69,3.78,3.78,3.78.81,0,1.57-.26,2.19-.7l-.91-.91c-.38.23-.82.35-1.27.36Z"/><rect class="cls-2" x="12.3" y="1.84" width="2.67" height="23.62" transform="translate(17.16 32.61) rotate(-145.57)"/></svg>